<svg xmlns="http://www.w3.org/2000/svg" viewBox="0 0 1200 680" role="img" aria-label="ENGSE203 Learning Dashboard expected screen">
<defs><linearGradient id="bg" x1="0" x2="1"><stop stop-color="#eff6ff"/><stop offset="1" stop-color="#faf5ff"/></linearGradient><filter id="s"><feDropShadow dx="0" dy="14" stdDeviation="18" flood-color="#0f172a" flood-opacity=".18"/></filter></defs><rect width="1200" height="680" rx="34" fill="url(#bg)"/><text x="62" y="78" font-family="Inter,Noto Sans Thai,sans-serif" font-size="46" font-weight="800" fill="#0b2a5f">ผลลัพธ์หน้าจอที่นักศึกษาต้องทำให้ได้</text><g filter="url(#s)"><rect x="82" y="130" width="1035" height="480" rx="30" fill="#fff"/><rect x="120" y="170" width="960" height="100" rx="22" fill="#17365d"/><text x="155" y="230" font-family="Inter,Noto Sans Thai" font-size="38" font-weight="800" fill="#fff">ENGSE203 Learning Dashboard</text><text x="155" y="260" font-family="Inter,Noto Sans Thai" font-size="21" fill="#dbeafe">Modern JavaScript, async data, and GitHub Pages</text><rect x="120" y="300" width="220" height="85" rx="18" fill="#e8f1ff"/><text x="150" y="350" font-size="28" font-family="Inter" font-weight="800" fill="#174a86">Total 4</text><rect x="370" y="300" width="220" height="85" rx="18" fill="#fff7ed"/><text x="400" y="350" font-size="28" font-family="Inter" font-weight="800" fill="#9a3412">To do 2</text><rect x="620" y="300" width="220" height="85" rx="18" fill="#ecfeff"/><text x="650" y="350" font-size="28" font-family="Inter" font-weight="800" fill="#0e7490">Doing 1</text><rect x="870" y="300" width="210" height="85" rx="18" fill="#f0fdf4"/><text x="900" y="350" font-size="28" font-family="Inter" font-weight="800" fill="#15803d">Done 1</text><rect x="120" y="415" width="450" height="60" rx="16" fill="#f8fafc" stroke="#cbd5e1"/><text x="145" y="454" font-size="22" font-family="Inter,Noto Sans Thai" fill="#64748b">Search title or topic...</text><rect x="600" y="415" width="220" height="60" rx="16" fill="#f8fafc" stroke="#cbd5e1"/><text x="625" y="454" font-size="22" font-family="Inter,Noto Sans Thai" fill="#64748b">Status: All</text><rect x="120" y="505" width="960" height="65" rx="18" fill="#f8fafc"/><text x="150" y="548" font-size="24" font-family="Inter,Noto Sans Thai" font-weight="700" fill="#0b2a5f">Modern JavaScript: ES6+</text><rect x="910" y="518" width="125" height="38" rx="19" fill="#fff1c7"/><text x="935" y="544" font-size="18" font-family="Inter" font-weight="800" fill="#8a5a00">To do</text></g></svg>
