<svg xmlns="http://www.w3.org/2000/svg" viewBox="0 0 1200 680" role="img" aria-label="Git workflow and GitHub Pages flow">
  <defs><linearGradient id="bg" x1="0" y1="0" x2="1" y2="1"><stop stop-color="#f8fafc"/><stop offset="1" stop-color="#eef2ff"/></linearGradient><filter id="s"><feDropShadow dx="0" dy="12" stdDeviation="16" flood-color="#0f172a" flood-opacity=".17"/></filter><marker id="a" markerWidth="14" markerHeight="14" refX="11" refY="7" orient="auto"><path d="M2,2 L12,7 L2,12 Z" fill="#2563eb"/></marker></defs>
  <rect width="1200" height="680" rx="34" fill="url(#bg)"/>
  <text x="62" y="78" font-family="Inter,Noto Sans Thai,sans-serif" font-size="46" font-weight="800" fill="#0b2a5f">Git Workflow → GitHub Pages</text>
  <text x="64" y="122" font-family="Inter,Noto Sans Thai,sans-serif" font-size="24" fill="#385270">ทำงานเป็นขั้น ตรวจสอบย้อนหลังได้ และส่งมอบเว็บไซต์จริงจาก main / docs</text>
  <g font-family="Inter,Noto Sans Thai,sans-serif" filter="url(#s)">
    <rect x="70" y="230" width="180" height="135" rx="22" fill="#fff"/><text x="105" y="286" font-size="30" font-weight="800" fill="#0b2a5f">main</text><text x="105" y="325" font-size="20" fill="#475569">สถานะเสถียร</text>
    <rect x="310" y="230" width="220" height="135" rx="22" fill="#fff"/><text x="345" y="286" font-size="28" font-weight="800" fill="#0b2a5f">feature/...</text><text x="345" y="325" font-size="20" fill="#475569">พัฒนา LAB 2</text>
    <rect x="590" y="230" width="170" height="135" rx="22" fill="#fff"/><text x="625" y="286" font-size="28" font-weight="800" fill="#0b2a5f">commit</text><text x="625" y="325" font-size="20" fill="#475569">หลักฐานงาน</text>
    <rect x="820" y="230" width="170" height="135" rx="22" fill="#fff"/><text x="855" y="286" font-size="28" font-weight="800" fill="#0b2a5f">PR</text><text x="855" y="325" font-size="20" fill="#475569">ตรวจ/สรุป</text>
    <rect x="1010" y="230" width="130" height="135" rx="22" fill="#fff"/><text x="1040" y="286" font-size="28" font-weight="800" fill="#0b2a5f">merge</text><text x="1040" y="325" font-size="20" fill="#475569">กลับ main</text>
  </g>
  <path d="M255 298 L300 298" stroke="#2563eb" stroke-width="7" marker-end="url(#a)"/><path d="M535 298 L580 298" stroke="#2563eb" stroke-width="7" marker-end="url(#a)"/><path d="M765 298 L810 298" stroke="#2563eb" stroke-width="7" marker-end="url(#a)"/><path d="M995 298 L1005 298" stroke="#2563eb" stroke-width="7" marker-end="url(#a)"/>
  <g filter="url(#s)"><rect x="278" y="455" width="645" height="105" rx="26" fill="#0b2a5f"/><text x="320" y="503" font-family="monospace" font-size="25" font-weight="800" fill="#fff">npm run build → docs/ → Settings > Pages → main /docs</text><text x="320" y="535" font-family="Inter,Noto Sans Thai" font-size="22" fill="#bcd4ff">Pages URL: https://username.github.io/engse203-lab02-id/</text></g>
  <path d="M1075 370 C980 445 940 485 930 505" stroke="#7c3aed" stroke-width="7" stroke-dasharray="14 12" fill="none" marker-end="url(#a)"/>
</svg>
