<svg xmlns="http://www.w3.org/2000/svg" width="1600" height="900" viewBox="0 0 1600 900">
  <defs>
    <linearGradient id="g" x1="0" x2="1" y1="0" y2="1"><stop stop-color="#0b2452"/><stop offset="1" stop-color="#1f6feb"/></linearGradient>
    <filter id="s"><feDropShadow dx="0" dy="10" stdDeviation="14" flood-color="#041936" flood-opacity=".25"/></filter>
  </defs>
  <rect width="1600" height="900" rx="42" fill="#f6f9ff"/>
  <rect x="70" y="70" width="1460" height="760" rx="34" fill="url(#g)" filter="url(#s)"/>
  <text x="130" y="170" font-family="Arial, sans-serif" font-size="52" font-weight="700" fill="#fff">ENGSE203 Learning Dashboard</text>
  <text x="130" y="215" font-family="Arial, sans-serif" font-size="27" fill="#d8e7ff">Modern JavaScript • Async Data • GitHub Pages</text>
  <rect x="130" y="270" width="1340" height="72" rx="18" fill="#ffffff" opacity=".96"/>
  <text x="160" y="317" font-family="Arial, sans-serif" font-size="25" fill="#52647e">⌕  Search title or topic</text>
  <g font-family="Arial, sans-serif"><g fill="#fff"><rect x="130" y="380" width="290" height="140" rx="20"/><rect x="450" y="380" width="290" height="140" rx="20"/><rect x="770" y="380" width="290" height="140" rx="20"/><rect x="1090" y="380" width="290" height="140" rx="20"/></g>
  <g fill="#0a2a5e"><text x="160" y="425" font-size="24">Total</text><text x="160" y="490" font-size="62" font-weight="700">4</text><text x="480" y="425" font-size="24">To do</text><text x="480" y="490" font-size="62" font-weight="700">2</text><text x="800" y="425" font-size="24">In progress</text><text x="800" y="490" font-size="62" font-weight="700">1</text><text x="1120" y="425" font-size="24">Done</text><text x="1120" y="490" font-size="62" font-weight="700">1</text></g></g>
  <g font-family="Arial, sans-serif"><rect x="130" y="565" width="1340" height="85" rx="18" fill="#ffffff"/><rect x="130" y="670" width="1340" height="85" rx="18" fill="#ffffff"/><text x="165" y="620" font-size="28" font-weight="700" fill="#0a2a5e">Modern JavaScript: ES6+</text><text x="165" y="725" font-size="28" font-weight="700" fill="#0a2a5e">Async/Await and fetch</text><rect x="1260" y="590" width="150" height="35" rx="18" fill="#fff1c7"/><text x="1335" y="615" text-anchor="middle" font-size="20" font-weight="700" fill="#8a5a00">To do</text><rect x="1260" y="695" width="150" height="35" rx="18" fill="#ddf7f4"/><text x="1335" y="720" text-anchor="middle" font-size="20" font-weight="700" fill="#087a7a">In progress</text></g>
</svg>
