<svg xmlns="http://www.w3.org/2000/svg" viewBox="0 0 980 520" role="img" aria-label="macOS and Windows WSL cross platform development">
  <defs><linearGradient id="b" x1="0" y1="0" x2="1" y2="1"><stop offset="0" stop-color="#eef7ff"/><stop offset="1" stop-color="#ffffff"/></linearGradient><filter id="s" x="-20%" y="-20%" width="140%" height="140%"><feDropShadow dx="0" dy="10" stdDeviation="12" flood-color="#082b56" flood-opacity=".20"/></filter></defs>
  <rect width="980" height="520" rx="36" fill="url(#b)"/>
  <g transform="translate(55 74)" filter="url(#s)">
    <rect width="362" height="316" rx="28" fill="#fff" stroke="#a9c8e7" stroke-width="3"/>
    <rect width="362" height="64" rx="28" fill="#062d5b"/>
    <text x="181" y="42" text-anchor="middle" font-family="Arial" font-weight="800" font-size="26" fill="#fff">macOS / iMac M1</text>
    <rect x="56" y="106" width="250" height="140" rx="16" fill="#172033"/>
    <rect x="76" y="130" width="72" height="11" rx="5" fill="#73d5ff"/><rect x="156" y="130" width="98" height="11" rx="5" fill="#ffcf37"/><rect x="76" y="164" width="165" height="11" rx="5" fill="#fff" opacity=".75"/><rect x="76" y="198" width="120" height="11" rx="5" fill="#73e4c4"/>
    <text x="58" y="282" font-family="Arial" font-size="18" font-weight="700" fill="#062d5b">VS Code Integrated Terminal (zsh)</text>
  </g>
  <g transform="translate(563 74)" filter="url(#s)">
    <rect width="362" height="316" rx="28" fill="#fff" stroke="#f0b7b7" stroke-width="3"/>
    <rect width="362" height="64" rx="28" fill="#aa1e22"/>
    <text x="181" y="42" text-anchor="middle" font-family="Arial" font-weight="800" font-size="26" fill="#fff">Windows 11 + WSL2</text>
    <rect x="56" y="106" width="250" height="140" rx="16" fill="#172033"/>
    <text x="76" y="142" font-family="monospace" font-size="17" fill="#73e4c4">user@ubuntu:~$</text>
    <text x="76" y="174" font-family="monospace" font-size="17" fill="#fff">node -v</text>
    <text x="76" y="206" font-family="monospace" font-size="17" fill="#ffcf37">git --version</text>
    <text x="58" y="282" font-family="Arial" font-size="18" font-weight="700" fill="#062d5b">Open project inside Ubuntu home folder</text>
  </g>
  <g transform="translate(395 216)"><circle cx="95" cy="95" r="77" fill="#0d5ca6"/><path d="M53 95h84M96 52l43 43-43 43" fill="none" stroke="#fff" stroke-width="15" stroke-linecap="round" stroke-linejoin="round"/><text x="95" y="194" text-anchor="middle" font-family="Arial" font-size="18" font-weight="800" fill="#062d5b">same workflow</text></g>
  <text x="490" y="463" text-anchor="middle" font-family="Arial" font-size="25" font-weight="800" fill="#062d5b">Node.js • npm • Git • VS Code • GitHub</text>
</svg>
