<svg xmlns="http://www.w3.org/2000/svg" viewBox="0 0 980 620" role="img" aria-label="Modern JavaScript development illustration">
  <defs>
    <linearGradient id="bg" x1="0" y1="0" x2="1" y2="1">
      <stop offset="0" stop-color="#062d5b"/>
      <stop offset="1" stop-color="#0d5ca6"/>
    </linearGradient>
    <linearGradient id="card" x1="0" y1="0" x2="1" y2="1">
      <stop offset="0" stop-color="#ffffff" stop-opacity=".92"/>
      <stop offset="1" stop-color="#d8ecff" stop-opacity=".90"/>
    </linearGradient>
    <filter id="shadow" x="-20%" y="-20%" width="140%" height="140%"><feDropShadow dx="0" dy="14" stdDeviation="16" flood-color="#00152f" flood-opacity=".28"/></filter>
  </defs>
  <rect x="0" y="0" width="980" height="620" rx="36" fill="url(#bg)"/>
  <g opacity=".16" stroke="#fff" fill="none" stroke-width="3">
    <path d="M32 84h156l28 28h110M770 56h106v86H714M58 534h150l31-31h96M761 542h128V422H767"/>
    <circle cx="214" cy="112" r="8" fill="#fff"/><circle cx="713" cy="142" r="8" fill="#fff"/><circle cx="239" cy="503" r="8" fill="#fff"/>
  </g>
  <g filter="url(#shadow)">
    <rect x="104" y="102" width="562" height="352" rx="26" fill="#071b35"/>
    <rect x="104" y="102" width="562" height="56" rx="26" fill="#0c2546"/>
    <circle cx="140" cy="130" r="8" fill="#f46d6d"/><circle cx="166" cy="130" r="8" fill="#ffd36b"/><circle cx="192" cy="130" r="8" fill="#6ee7a2"/>
    <rect x="145" y="194" width="74" height="16" rx="8" fill="#ffcc38"/>
    <rect x="235" y="194" width="105" height="16" rx="8" fill="#76d4ff"/>
    <rect x="355" y="194" width="139" height="16" rx="8" fill="#d0b6ff"/>
    <rect x="145" y="238" width="132" height="14" rx="7" fill="#fff" opacity=".9"/>
    <rect x="292" y="238" width="86" height="14" rx="7" fill="#ffcc38"/>
    <rect x="392" y="238" width="148" height="14" rx="7" fill="#fff" opacity=".75"/>
    <rect x="173" y="278" width="74" height="14" rx="7" fill="#74e4c4"/>
    <rect x="262" y="278" width="204" height="14" rx="7" fill="#fff" opacity=".75"/>
    <rect x="145" y="318" width="188" height="14" rx="7" fill="#fff" opacity=".8"/>
    <rect x="350" y="318" width="88" height="14" rx="7" fill="#d0b6ff"/>
    <rect x="454" y="318" width="114" height="14" rx="7" fill="#74e4c4"/>
    <rect x="173" y="360" width="208" height="14" rx="7" fill="#fff" opacity=".75"/>
    <rect x="397" y="360" width="106" height="14" rx="7" fill="#ffcc38"/>
  </g>
  <g filter="url(#shadow)">
    <rect x="598" y="240" width="250" height="168" rx="28" fill="url(#card)"/>
    <rect x="628" y="274" width="52" height="52" rx="16" fill="#ffcf37"/>
    <text x="654" y="309" text-anchor="middle" font-family="Arial,sans-serif" font-size="27" font-weight="800" fill="#14253f">JS</text>
    <text x="706" y="292" font-family="Arial,sans-serif" font-size="22" font-weight="800" fill="#062d5b">Modern JavaScript</text>
    <text x="706" y="323" font-family="Arial,sans-serif" font-size="17" fill="#35506f">Modules • Async • Git</text>
    <g transform="translate(627 348)">
      <rect x="0" y="0" width="184" height="24" rx="12" fill="#dbeaff"/>
      <rect x="0" y="0" width="116" height="24" rx="12" fill="#2f80ed"/>
      <circle cx="116" cy="12" r="8" fill="#fff"/>
    </g>
  </g>
  <g transform="translate(695 83)" filter="url(#shadow)">
    <circle cx="94" cy="94" r="83" fill="#e9f5ff"/>
    <path d="M65 52l58 42-58 42z" fill="#0d5ca6"/>
    <path d="M42 127h104" stroke="#ffcf37" stroke-width="9" stroke-linecap="round"/>
  </g>
  <g transform="translate(105 478)">
    <rect width="335" height="74" rx="20" fill="#ffffff" opacity=".94"/>
    <circle cx="42" cy="37" r="19" fill="#aa1e22"/>
    <path d="M36 37l5 5 9-12" fill="none" stroke="#fff" stroke-width="4" stroke-linecap="round" stroke-linejoin="round"/>
    <text x="76" y="31" font-family="Arial,sans-serif" font-size="18" font-weight="800" fill="#062d5b">Build readable code.</text>
    <text x="76" y="54" font-family="Arial,sans-serif" font-size="15" fill="#35506f">Learn • Practice • Deploy</text>
  </g>
</svg>
