<svg xmlns="http://www.w3.org/2000/svg" width="1600" height="900" viewBox="0 0 1600 900">
  <defs>
    <linearGradient id="bg" x1="0" x2="1" y1="0" y2="1"><stop stop-color="#f6f9ff"/><stop offset="1" stop-color="#e6f0ff"/></linearGradient>
    <filter id="shadow"><feDropShadow dx="0" dy="14" stdDeviation="18" flood-color="#17365d" flood-opacity=".16"/></filter>
    <marker id="arrow" markerWidth="12" markerHeight="12" refX="10" refY="6" orient="auto"><path d="M0,0 L12,6 L0,12z" fill="#246bce"/></marker>
  </defs>
  <rect width="1600" height="900" rx="40" fill="url(#bg)"/>
  <text x="80" y="105" font-family="Arial, sans-serif" font-size="50" font-weight="700" fill="#0a2a5e">ES Modules: แยกหน้าที่ของแต่ละไฟล์</text>
  <text x="80" y="155" font-family="Arial, sans-serif" font-size="28" fill="#50627b">main.js เชื่อมลำดับการทำงาน • api.js โหลดข้อมูล • utils.js ประมวลผล • ui.js แสดงผล</text>
  <g filter="url(#shadow)">
    <rect x="105" y="290" width="300" height="270" rx="28" fill="#ffffff"/>
    <rect x="465" y="220" width="300" height="270" rx="28" fill="#ffffff"/>
    <rect x="825" y="390" width="300" height="270" rx="28" fill="#ffffff"/>
    <rect x="1185" y="220" width="300" height="270" rx="28" fill="#ffffff"/>
  </g>
  <g font-family="Arial, sans-serif">
    <text x="150" y="350" font-size="34" font-weight="700" fill="#0a2a5e">main.js</text><text x="150" y="400" font-size="26" fill="#50627b">• state</text><text x="150" y="440" font-size="26" fill="#50627b">• events</text><text x="150" y="480" font-size="26" fill="#50627b">• orchestration</text>
    <text x="510" y="280" font-size="34" font-weight="700" fill="#0a2a5e">api.js</text><text x="510" y="330" font-size="26" fill="#50627b">• fetch</text><text x="510" y="370" font-size="26" fill="#50627b">• response.ok</text><text x="510" y="410" font-size="26" fill="#50627b">• JSON</text>
    <text x="870" y="450" font-size="34" font-weight="700" fill="#0a2a5e">utils.js</text><text x="870" y="500" font-size="26" fill="#50627b">• filter</text><text x="870" y="540" font-size="26" fill="#50627b">• stats</text><text x="870" y="580" font-size="26" fill="#50627b">• labels</text>
    <text x="1230" y="280" font-size="34" font-weight="700" fill="#0a2a5e">ui.js</text><text x="1230" y="330" font-size="26" fill="#50627b">• render cards</text><text x="1230" y="370" font-size="26" fill="#50627b">• messages</text><text x="1230" y="410" font-size="26" fill="#50627b">• empty state</text>
  </g>
  <path d="M405 410 C435 410 435 355 465 355" fill="none" stroke="#246bce" stroke-width="9" marker-end="url(#arrow)"/>
  <path d="M765 355 C795 355 795 525 825 525" fill="none" stroke="#246bce" stroke-width="9" marker-end="url(#arrow)"/>
  <path d="M1125 525 C1155 525 1155 355 1185 355" fill="none" stroke="#246bce" stroke-width="9" marker-end="url(#arrow)"/>
  <path d="M405 515 C660 745 940 745 1185 515" fill="none" stroke="#7c3aed" stroke-width="8" stroke-dasharray="17 16" marker-end="url(#arrow)"/>
  <g fill="#246bce"><circle cx="450" cy="382" r="11"/><circle cx="810" cy="440" r="11"/><circle cx="1170" cy="440" r="11"/></g>
  <rect x="535" y="735" width="535" height="80" rx="40" fill="#0a2a5e"/>
  <text x="800" y="788" text-anchor="middle" font-family="Arial, sans-serif" font-size="30" font-weight="700" fill="#ffffff">index.html → &lt;script type="module" src="/src/main.js"&gt;</text>
</svg>
