<svg viewBox="0 0 900 500" xmlns="http://www.w3.org/2000/svg" font-family="Kanit, sans-serif">
  <defs>
    <linearGradient id="b1" x1="0%" y1="0%" x2="100%" y2="0%"><stop offset="0%" style="stop-color:#3B82F6"/><stop offset="100%" style="stop-color:#60A5FA"/></linearGradient>
    <linearGradient id="b2" x1="0%" y1="0%" x2="100%" y2="0%"><stop offset="0%" style="stop-color:#8B5CF6"/><stop offset="100%" style="stop-color:#A78BFA"/></linearGradient>
    <linearGradient id="b3" x1="0%" y1="0%" x2="100%" y2="0%"><stop offset="0%" style="stop-color:#10B981"/><stop offset="100%" style="stop-color:#34D399"/></linearGradient>
    <linearGradient id="b4" x1="0%" y1="0%" x2="100%" y2="0%"><stop offset="0%" style="stop-color:#F59E0B"/><stop offset="100%" style="stop-color:#FBBF24"/></linearGradient>
    <linearGradient id="b5" x1="0%" y1="0%" x2="100%" y2="0%"><stop offset="0%" style="stop-color:#EC4899"/><stop offset="100%" style="stop-color:#F472B6"/></linearGradient>
  </defs>
  <text x="450" y="40" text-anchor="middle" fill="#F1F5F9" font-size="28" font-weight="700">Top 5 กิจกรรมยอดฮิตบนโลกออนไลน์</text>
  <!-- Bar 1 -->
  <text x="10" y="102" fill="#94A3B8" font-size="20">🔍 ค้นหาข้อมูล</text>
  <rect x="240" y="80" width="565" height="38" rx="8" fill="url(#b1)"/>
  <text x="815" y="106" fill="#F1F5F9" font-size="22" font-weight="700">62.8%</text>
  <!-- Bar 2 -->
  <text x="10" y="182" fill="#94A3B8" font-size="20">💬 ติดต่อสื่อสาร</text>
  <rect x="240" y="160" width="542" height="38" rx="8" fill="url(#b2)"/>
  <text x="792" y="186" fill="#F1F5F9" font-size="22" font-weight="700">60.2%</text>
  <!-- Bar 3 -->
  <text x="10" y="262" fill="#94A3B8" font-size="20">📰 ติดตามข่าวสาร</text>
  <rect x="240" y="240" width="495" height="38" rx="8" fill="url(#b3)"/>
  <text x="745" y="266" fill="#F1F5F9" font-size="22" font-weight="700">55.0%</text>
  <!-- Bar 4 -->
  <text x="10" y="342" fill="#94A3B8" font-size="20">🎬 ดูหนัง/วิดีโอ</text>
  <rect x="240" y="320" width="492" height="38" rx="8" fill="url(#b4)"/>
  <text x="742" y="346" fill="#F1F5F9" font-size="22" font-weight="700">54.7%</text>
  <!-- Bar 5 -->
  <text x="10" y="422" fill="#94A3B8" font-size="20">🛠️ ค้นหา How-To</text>
  <rect x="240" y="400" width="460" height="38" rx="8" fill="url(#b5)"/>
  <text x="710" y="426" fill="#F1F5F9" font-size="22" font-weight="700">51.1%</text>
  <!-- Source note -->
  <text x="450" y="480" text-anchor="middle" fill="#475569" font-size="16">Source: DataReportal — Global Digital Insights 2025</text>
</svg>
