<svg xmlns="http://www.w3.org/2000/svg" viewBox="0 0 960 520" role="img" aria-label="GitHub Pages deployment illustration">
  <defs><linearGradient id="bg" x1="0" y1="0" x2="1" y2="1"><stop offset="0" stop-color="#ffffff"/><stop offset="1" stop-color="#eff8ff"/></linearGradient><filter id="s" x="-20%" y="-20%" width="140%" height="140%"><feDropShadow dx="0" dy="10" stdDeviation="12" flood-color="#082b56" flood-opacity=".18"/></filter></defs>
  <rect width="960" height="520" rx="36" fill="url(#bg)"/>
  <g font-family="Arial" filter="url(#s)">
    <g transform="translate(68 120)"><rect width="210" height="210" rx="24" fill="#062d5b"/><text x="105" y="86" text-anchor="middle" font-size="28" font-weight="800" fill="#fff">source</text><text x="105" y="127" text-anchor="middle" font-size="24" fill="#ffcf37">main</text><rect x="38" y="151" width="134" height="28" rx="14" fill="#0d5ca6"/><text x="105" y="171" text-anchor="middle" font-size="16" fill="#fff">/docs</text></g>
    <g transform="translate(375 110)"><circle cx="108" cy="108" r="96" fill="#ffcf37"/><path d="M59 107h98M115 52l55 55-55 55" fill="none" stroke="#062d5b" stroke-width="16" stroke-linecap="round" stroke-linejoin="round"/><text x="108" y="243" text-anchor="middle" font-size="18" font-weight="800" fill="#062d5b">build & publish</text></g>
    <g transform="translate(665 102)"><rect width="220" height="234" rx="24" fill="#fff" stroke="#a9c8e7" stroke-width="4"/><rect width="220" height="50" rx="24" fill="#aa1e22"/><circle cx="36" cy="25" r="8" fill="#fff" opacity=".9"/><circle cx="62" cy="25" r="8" fill="#fff" opacity=".8"/><circle cx="88" cy="25" r="8" fill="#fff" opacity=".7"/><rect x="30" y="78" width="160" height="16" rx="8" fill="#0d5ca6"/><rect x="30" y="111" width="120" height="12" rx="6" fill="#b9d8ee"/><rect x="30" y="142" width="150" height="12" rx="6" fill="#b9d8ee"/><rect x="30" y="173" width="96" height="24" rx="12" fill="#73e4c4"/><text x="110" y="222" text-anchor="middle" font-size="15" font-weight="700" fill="#062d5b">github.io / project</text></g>
  </g>
  <path d="M292 214h58M595 214h58" stroke="#0d5ca6" stroke-width="9" stroke-linecap="round"/>
  <path d="M344 214l-16-14v28zM647 214l-16-14v28z" fill="#0d5ca6"/>
  <text x="480" y="445" text-anchor="middle" font-family="Arial" font-size="26" font-weight="800" fill="#062d5b">Source code + build output → publicly viewable static site</text>
</svg>
